<svg id="ee1442bd-1906-4669-896c-455205bcea2c" xmlns="http://www.w3.org/2000/svg" viewBox="0 0 1013.9 503"><defs><style>.cls-1{fill:#333c44;}.cls-2,.cls-4{fill:#f2f2f2;}.cls-3{fill:#36cab1;}.cls-4{opacity:0.1;isolation:isolate;}</style></defs><title>discovering</title><path class="cls-1" d="M507,0C228.3,0,2.2,224.8,0,503H1013.9C1011.8,224.8,785.6,0,507,0Z" transform="translate(0 0)"/><circle class="cls-2" cx="480.8" cy="52.5" r="5"/><circle class="cls-2" cx="323.8" cy="217.5" r="2"/><circle class="cls-2" cx="618.8" cy="311.5" r="2"/><circle class="cls-2" cx="97.8" cy="286.5" r="2"/><circle class="cls-2" cx="877.8" cy="215.5" r="2"/><circle class="cls-2" cx="235.8" cy="236.5" r="2"/><circle class="cls-2" cx="563.8" cy="196.5" r="2"/><circle class="cls-2" cx="629.8" cy="52.5" r="2"/><rect class="cls-2" x="211.8" y="288.5" width="2" height="1"/><rect class="cls-2" x="270.8" y="135.5" width="2" height="1"/><rect class="cls-2" x="414.8" y="249.5" width="2" height="1"/><rect class="cls-2" x="796.8" y="293.5" width="2" height="1"/><rect class="cls-2" x="677.8" y="140.5" width="2" height="1"/><rect x="225.1" y="363.7" width="3.5" height="139"/><path d="M261.1,339.4c.2,48.6-34,88.2-34,88.2s-34.6-39.2-34.8-87.9,34-88.2,34-88.2S260.9,290.8,261.1,339.4Z" transform="translate(0 0)"/><rect x="180.6" y="322.5" width="4.6" height="180.2"/><path d="M227.3,303.4c.3,63-44,114.3-44,114.3s-44.8-50.9-45.1-113.9,44-114.3,44-114.3S227,240.4,227.3,303.4Z" transform="translate(0 0)"/><rect x="712.1" y="363.7" width="3.5" height="139"/><path d="M748.1,381.4c.2,48.6-34,88.2-34,88.2s-34.6-39.2-34.8-87.9,34-88.2,34-88.2S747.9,332.8,748.1,381.4Z" transform="translate(0 0)"/><rect x="141.1" y="363.7" width="3.5" height="139"/><path d="M177.1,339.4c.2,48.6-34,88.2-34,88.2s-34.6-39.2-34.8-87.9,34-88.2,34-88.2S176.9,290.8,177.1,339.4Z" transform="translate(0 0)"/><rect x="451.1" y="363.7" width="3.5" height="139"/><path d="M487.1,339.4c.2,48.6-34,88.2-34,88.2s-34.6-39.2-34.8-87.9,34-88.2,34-88.2S486.9,290.8,487.1,339.4Z" transform="translate(0 0)"/><rect x="406.6" y="322.5" width="4.6" height="180.2"/><path d="M453.3,303.4c.3,63-44,114.3-44,114.3s-44.8-50.9-45.1-113.9,44-114.3,44-114.3S453,240.4,453.3,303.4Z" transform="translate(0 0)"/><rect x="367.1" y="363.7" width="3.5" height="139"/><path d="M403.1,339.4c.2,48.6-34,88.2-34,88.2s-34.6-39.2-34.8-87.9,34-88.2,34-88.2S402.9,290.8,403.1,339.4Z" transform="translate(0 0)"/><path class="cls-3" d="M738.4,428.4l-58.8-54.1c-.2,2.4-.2,4.9-.2,7.4.2,48.6,34.8,87.9,34.8,87.9A168.8,168.8,0,0,0,738.4,428.4Z" transform="translate(0 0)"/><path d="M300.6,490.3c2,7.4,8.9,12.1,8.9,12.1s3.6-7.5,1.6-14.9-8.9-12.1-8.9-12.1S298.6,482.8,300.6,490.3Z" transform="translate(0 0)"/><path d="M303.6,488.7c5.5,5.4,6.2,13.7,6.2,13.7s-8.3-.5-13.8-5.8-6.2-13.7-6.2-13.7S298.1,483.3,303.6,488.7Z" transform="translate(0 0)"/><path class="cls-3" d="M584.6,490.3c2,7.4,8.9,12.1,8.9,12.1s3.6-7.5,1.6-14.9-8.9-12.1-8.9-12.1S582.6,482.8,584.6,490.3Z" transform="translate(0 0)"/><path class="cls-3" d="M587.6,488.7c5.5,5.4,6.2,13.7,6.2,13.7s-8.3-.5-13.8-5.8-6.2-13.7-6.2-13.7S582.1,483.3,587.6,488.7Z" transform="translate(0 0)"/><path d="M76.6,490.3c2,7.4,8.9,12.1,8.9,12.1s3.6-7.5,1.6-14.9-8.9-12.1-8.9-12.1S74.6,482.8,76.6,490.3Z" transform="translate(0 0)"/><path d="M79.6,488.7c5.5,5.4,6.2,13.7,6.2,13.7s-8.3-.5-13.8-5.8-6.2-13.7-6.2-13.7S74.1,483.3,79.6,488.7Z" transform="translate(0 0)"/><path class="cls-3" d="M387.3,220.7l96.5,145.7a111.65,111.65,0,0,0,3.2-27c-.1-23.7-8.4-45.2-16.8-61l-4.5,1.1,4.2-1.6a156.27,156.27,0,0,0-17.7-26.4s-2.5,2.9-6.1,8c-12.7-41.1-38.1-70-38.1-70A219.22,219.22,0,0,0,387.3,220.7Z" transform="translate(0 0)"/><polygon class="cls-4" points="574.7 278 574.7 278 574.7 278 552.9 257.9 552.7 257.9 544 250 543.6 249.9 544 249.7 451.1 164.3 451.1 164.3 361.4 81.8 315.6 106 311.9 106.8 366.7 189.5 574.1 502.5 819 502.5 574.7 278"/><circle class="cls-2" cx="334.8" cy="92.5" r="27"/></svg>