<svg id="b6fe4ea4-91cd-4e88-acbb-2663d3326f54" xmlns="http://www.w3.org/2000/svg" viewBox="0 0 562.41 594.39"><defs><style>.cls-1{fill:#d0cde1;}.cls-2{fill:#2a363b;}.cls-3{fill:#36cab1;}</style></defs><title>ideas</title><path class="cls-1" d="M957,270.3c0,35.2-8.3,64.1-22.8,88.9A178.31,178.31,0,0,1,918,382.4c-53.1,65-151.9,100.5-241.1,158.1-263.5,170-292-102.4-280.1-270.3,4.8-67.7,31.2-129.8,73.1-177.3a279.16,279.16,0,0,1,28.5-28C546,24.4,607.4-.1,677-.1,796.2,0,898,72,938.4,173.3a262.21,262.21,0,0,1,18.6,97Z" transform="translate(-394.59 0.1)"/><path class="cls-2" d="M452.4,323.2l-.5-.1,1.1,4.3a110,110,0,0,0,4.7,17.7l33.2,126.3a21.48,21.48,0,0,0,17.4,15.7l67.8,10.5a21.15,21.15,0,0,0,22.1-11.1l64.4-120.3a101.74,101.74,0,0,0,5.5-10.3l2.2-4.1H670a113.84,113.84,0,1,0-217.6-28.6Z" transform="translate(-394.59 0.1)"/><path class="cls-3" d="M580.3,505.9a21.86,21.86,0,0,1-3.6-.3l-70.8-11a23.25,23.25,0,0,1-19-17.2l-34.7-132a115.57,115.57,0,0,1-4.9-18.6l-.9-5.8A120,120,0,0,1,550.2,186.7a122,122,0,0,1,33.6.4l-.3,2a118.21,118.21,0,0,0-134.7,98.7,122.45,122.45,0,0,0-.3,34.2l.7,4.3a115.72,115.72,0,0,0,4.8,18.4L488.8,477a21.48,21.48,0,0,0,17.4,15.7l70.8,11a21.3,21.3,0,0,0,22.1-11l1.8.9A23.78,23.78,0,0,1,580.3,505.9Z" transform="translate(-394.59 0.1)"/><rect class="cls-3" x="515.3" y="409.84" width="125.3" height="2.6" transform="translate(-401.47 812.55) rotate(-69.89)"/><rect class="cls-3" x="527.98" y="340.99" width="2.6" height="125.3" transform="translate(-411.8 23.72) rotate(-2.52)"/><path class="cls-2" d="M580,548.7l-90.8-14a2.54,2.54,0,0,1-2.1-3,2.44,2.44,0,0,1,2.9-2.1l90.8,14a2.58,2.58,0,0,1,2.2,2.9,2.74,2.74,0,0,1-3,2.2Z" transform="translate(-394.59 0.1)"/><path class="cls-2" d="M582.3,535.1l-90.8-14a2.57,2.57,0,1,1,.7-5.1h0L583,530a2.57,2.57,0,0,1-.7,5.1Z" transform="translate(-394.59 0.1)"/><path class="cls-2" d="M584.6,521.5l-90.8-14a2.54,2.54,0,0,1-2.1-3,2.44,2.44,0,0,1,2.9-2.1l90.8,14a2.54,2.54,0,0,1,2.1,3,2.59,2.59,0,0,1-2.9,2.1Z" transform="translate(-394.59 0.1)"/><path class="cls-2" d="M531.8,562.8c18,2.8,34.1-5,36.1-17.4l-65.2-10.1C500.7,547.7,513.8,560,531.8,562.8Z" transform="translate(-394.59 0.1)"/><path class="cls-3" d="M558.7,327.1c-3.9-.6-7.1-3.7-8.8-5.7-.6-.7-1.1-1.4-1.7-2.1-2-2.5-4-5-6.7-6.2-5.9-2.8-12.9,1.1-19,5.2l-1.5-2.1c6.7-4.6,14.4-8.8,21.5-5.5,3.2,1.5,5.4,4.3,7.6,6.9.5.7,1.1,1.4,1.6,2,1.8,2.1,5.5,5.6,9.4,4.8a13.05,13.05,0,0,0,4.5-2.4,21.37,21.37,0,0,1,3.2-2,12.68,12.68,0,0,1,13.9,2,18,18,0,0,1,1.9,2c1.2,1.3,2.3,2.6,3.7,3,2.1.7,4.3-.5,6.7-1.8s5-2.7,7.8-2.3h.3c5.1.8,7.4,6.4,8.8,10.6l-2.5.8c-1.8-5.7-4-8.6-6.9-8.9-2.1-.2-4.1.9-6.3,2.1-2.7,1.5-5.6,3-8.7,2-2.1-.7-3.5-2.3-4.9-3.8-.5-.6-1.1-1.2-1.7-1.8a10.11,10.11,0,0,0-11-1.6,16.65,16.65,0,0,0-2.8,1.8,14.36,14.36,0,0,1-5.5,2.8A5.66,5.66,0,0,1,558.7,327.1Z" transform="translate(-394.59 0.1)"/><path class="cls-3" d="M558.7,314.7c-3.9-.6-7.1-3.7-8.8-5.7-.6-.7-1.1-1.4-1.7-2.1-2-2.5-4-5-6.7-6.2-5.9-2.8-12.9,1.1-19,5.2l-1.5-2.1c6.7-4.6,14.4-8.8,21.5-5.5,3.2,1.5,5.4,4.3,7.6,6.9.5.7,1.1,1.4,1.6,2,1.8,2.1,5.5,5.6,9.4,4.8a13.05,13.05,0,0,0,4.5-2.4,21.37,21.37,0,0,1,3.2-2,12.68,12.68,0,0,1,13.9,2,18,18,0,0,1,1.9,2c1.2,1.3,2.3,2.6,3.7,3,2.1.7,4.3-.5,6.7-1.8s5-2.7,7.8-2.3h.3c5.1.8,7.4,6.4,8.8,10.6l-2.5.8c-1.8-5.7-4-8.6-6.9-8.9-2.1-.2-4.1.9-6.3,2.1-2.7,1.5-5.6,3-8.7,2-2.1-.7-3.5-2.3-4.9-3.8-.5-.6-1.1-1.2-1.7-1.8a10.11,10.11,0,0,0-11-1.6,16.65,16.65,0,0,0-2.8,1.8,14.36,14.36,0,0,1-5.5,2.8A7,7,0,0,1,558.7,314.7Z" transform="translate(-394.59 0.1)"/></svg>