<svg id="bcb5bbf0-7a2c-468e-9169-def856f1bf3d" xmlns="http://www.w3.org/2000/svg" viewBox="0 0 433 442"><defs><style>.cls-1{fill:#333c44;}.cls-2{fill:#36cab1;}</style></defs><title>photography</title><path class="cls-1" d="M0,0V442H433V0ZM393,312H41V38H393Z" transform="translate(0 0)"/><path class="cls-1" d="M345.8,314.6c-.2-.3-5-8.3-6.7-25-1.5-15.3-.5-41,12.8-76.9,25.3-68-5.8-122.8-6.1-123.4l1.5-.9c.1.1,8.1,14.1,12.8,36.4a158.18,158.18,0,0,1-6.6,88.5c-25.2,67.9-6.5,100-6.3,100.3Z" transform="translate(0 0)"/><circle class="cls-2" cx="335.9" cy="73.9" r="11.5"/><circle class="cls-1" cx="372.2" cy="116.5" r="11.5"/><circle class="cls-2" cx="347.4" cy="144.8" r="11.5"/><circle class="cls-2" cx="377.6" cy="168.8" r="11.5"/><circle class="cls-1" cx="338.6" cy="206" r="11.5"/><path class="cls-1" d="M352.7,315s-11.5-28.4,23-49.6Z" transform="translate(0 0)"/><path class="cls-1" d="M338.6,314.5s-5.2-30.2-45.8-29.9Z" transform="translate(0 0)"/><path class="cls-1" d="M265.7,314.8c-.1-.2-3.1-5.2-4.2-15.6-1-9.5-.3-25.6,8-48,15.8-42.5-3.6-76.8-3.8-77.1l1-.6c.1.1,5.1,8.8,8,22.7a99.32,99.32,0,0,1-4.1,55.3c-15.8,42.4-4,62.5-3.9,62.7Z" transform="translate(0 0)"/><circle class="cls-2" cx="259.5" cy="164.3" r="7.2" transform="translate(55.75 394.13) rotate(-80.78)"/><circle class="cls-1" cx="282.2" cy="190.9" r="7.2"/><circle class="cls-2" cx="266.7" cy="208.7" r="7.2"/><circle class="cls-2" cx="285.5" cy="223.6" r="7.2"/><circle class="cls-1" cx="261.1" cy="246.9" r="7.2" transform="translate(-24.44 465.08) rotate(-80.78)"/><path class="cls-1" d="M270,315s-7.2-17.7,14.4-31Z" transform="translate(0 0)"/><path class="cls-1" d="M261.2,314.7s-3.3-18.9-28.7-18.7Z" transform="translate(0 0)"/></svg>