<svg id="a4fbd1e2-edc2-431c-b11d-f5395f4f8a37" xmlns="http://www.w3.org/2000/svg" viewBox="0 0 404 638.7"><defs><style>.cls-1{fill:#d0cde1;}.cls-2{fill:#3c7571;}.cls-3{fill:#2a363b;}.cls-4{fill:#3f3d56;}</style></defs><title>rational</title><circle class="cls-1" cx="123" cy="399.7" r="123"/><circle class="cls-2" cx="143" cy="381.7" r="123"/><rect class="cls-3" x="58" y="72" width="108" height="108"/><rect class="cls-2" x="73" y="56" width="108" height="108"/><path class="cls-4" d="M234,142H92V0H234ZM94,140H232V2H94Z" transform="translate(0 0)"/><rect class="cls-3" x="301" y="275" width="28" height="28"/><rect class="cls-2" x="307" y="268" width="28" height="28"/><path class="cls-4" d="M362,286H316V240h46Zm-44-2h42V242H318Z" transform="translate(0 0)"/><path class="cls-4" d="M251,638.7c-84.4,0-153-68.6-153-153s68.6-153,153-153,153,68.6,153,153S335.4,638.7,251,638.7Zm0-304c-83.3,0-151,67.7-151,151s67.7,151,151,151,151-67.7,151-151S334.3,334.7,251,334.7Z" transform="translate(0 0)"/></svg>