<svg id="b7d8d657-bdb0-4cab-bef3-dbc27e5f057f" xmlns="http://www.w3.org/2000/svg" viewBox="0 0 1011.7 581"><defs><style>.cls-1{fill:#d0cde1;}.cls-2{fill:#333c44;}.cls-3{fill:#36cab1;}</style></defs><title>trees</title><path class="cls-1" d="M957.2,451.9c-4.4,0-8.6,2.1-12.5,6-10.6-38.3-27.1-62.9-45.5-62.9s-34.9,24.6-45.5,62.9c-3.9-3.9-8.1-6-12.5-6-21,0-38,48.4-38,108.1h192C995.2,500.3,978.2,451.9,957.2,451.9Z" transform="translate(0 0)"/><path class="cls-2" d="M1011.7,581H1.7c.9-82.1,226.7-148.5,505-148.5S1010.8,498.9,1011.7,581Z" transform="translate(0 0)"/><circle class="cls-3" cx="129.2" cy="129.2" r="129.2"/><path class="cls-2" d="M133.3,499H126V144.2a123,123,0,0,1,3.6-29.6h0a123,123,0,0,1,3.6,29.6Z" transform="translate(0 0)"/><path class="cls-2" d="M130.1,239l-3.8-6.2,54-33.4a22.77,22.77,0,0,1,12.5-3.4h0a22.87,22.87,0,0,1-8.6,9.6Z" transform="translate(0 0)"/><path class="cls-2" d="M127.6,205.3l3.8-6.2-37.1-23a13.7,13.7,0,0,0-9.9-1.8h0a13.8,13.8,0,0,0,6,8Z" transform="translate(0 0)"/><path class="cls-2" d="M127.6,347l3.8-6.2-37.1-23a13.7,13.7,0,0,0-9.9-1.8h0a13.8,13.8,0,0,0,6,8Z" transform="translate(0 0)"/><circle class="cls-3" cx="542.5" cy="131" r="124"/><path class="cls-2" d="M538.5,486h7V145.4A118.23,118.23,0,0,0,542,117h0a118.23,118.23,0,0,0-3.5,28.4Z" transform="translate(0 0)"/><path class="cls-2" d="M541.6,236.4l3.7-6-51.8-32.1a22.18,22.18,0,0,0-12-3.3h0a22.53,22.53,0,0,0,8.3,9.3Z" transform="translate(0 0)"/><path class="cls-2" d="M544,204.1l-3.7-6L575.9,176a13.16,13.16,0,0,1,9.5-1.8h0a13.28,13.28,0,0,1-5.8,7.7Z" transform="translate(0 0)"/><path class="cls-2" d="M544,340.1l-3.7-6L575.9,312a13.16,13.16,0,0,1,9.5-1.8h0a13.28,13.28,0,0,1-5.8,7.7Z" transform="translate(0 0)"/><path class="cls-1" d="M148.3,568.5a7.08,7.08,0,0,0-3.2.7c-2.8-4.4-7-7.2-11.9-7.2s-9.1,2.8-11.9,7.2a7.08,7.08,0,0,0-3.2-.7c-5.5,0-9.9,5.6-9.9,12.4h50C158.2,574.1,153.7,568.5,148.3,568.5Z" transform="translate(0 0)"/><path class="cls-1" d="M458.3,560a4.72,4.72,0,0,0-3.2,1.2c-2.8-7.4-7-12.2-11.9-12.2s-9.1,4.8-11.9,12.2a6.3,6.3,0,0,0-3.2-1.2c-5.5,0-9.9,9.4-9.9,21h50C468.2,569.4,463.7,560,458.3,560Z" transform="translate(0 0)"/></svg>