<svg id="b6117b06-2b45-45bc-b789-4a82ab6612dd" xmlns="http://www.w3.org/2000/svg" viewBox="0 0 1057.2 641.2"><defs><style>.cls-1{fill:#d0cde1;}.cls-2{fill:#36cab1;}.cls-3,.cls-7{fill:#3f3d56;}.cls-4{fill:#333c44;}.cls-5{fill:#fff;}.cls-6{opacity:0.1;isolation:isolate;}.cls-7{stroke:#000;stroke-miterlimit:10;stroke-width:0.25px;}</style></defs><title>web-developer</title><circle class="cls-1" cx="246.8" cy="508.5" r="59.2"/><circle class="cls-2" cx="256.5" cy="499.8" r="59.2"/><rect class="cls-3" x="304.2" y="434.2" width="733" height="2"/><path class="cls-4" d="M683.8,5.4H423.6V0h-118V5.4H44.4A17.64,17.64,0,0,0,26.8,23h0V379.3a17.64,17.64,0,0,0,17.6,17.6H683.8a17.64,17.64,0,0,0,17.6-17.6V23A17.56,17.56,0,0,0,683.88,5.4Z" transform="translate(0 0)"/><rect class="cls-5" x="50.4" y="36.5" width="627.4" height="353.9"/><circle class="cls-2" cx="363.6" cy="20.4" r="6.4"/><polygon class="cls-6" points="498.4 390.4 50.4 390.4 50.4 36.5 498.4 390.4"/><circle class="cls-2" cx="148.6" cy="303.6" r="60.3"/><rect class="cls-4" x="510" y="227.3" width="58.6" height="12.2"/><rect class="cls-4" x="439.1" y="132" width="200.3" height="5.2"/><rect class="cls-4" x="439.1" y="148.6" width="200.3" height="5.2"/><rect class="cls-4" x="439.1" y="165.2" width="200.3" height="5.2"/><rect class="cls-4" x="439.1" y="181.8" width="200.3" height="5.2"/><rect class="cls-4" x="439.1" y="198.5" width="200.3" height="5.2"/><rect class="cls-1" x="614.9" y="43.6" width="24.5" height="24.5"/><path class="cls-3" d="M650.8,79.5H621V49.8h29.7V79.5Zm-28.5-1.3h27.2V51H622.3Z" transform="translate(0 0)"/><path class="cls-4" d="M719,383.9H657.8v-4.4a.9.9,0,0,0-.9-.9h-21a.9.9,0,0,0-.9.9h0v4.4H621.9v-4.4a.9.9,0,0,0-.9-.9H600a.9.9,0,0,0-.9.9h0v4.4H586v-4.4a.9.9,0,0,0-.9-.9h-21a.9.9,0,0,0-.9.9h0v4.4H550.1v-4.4a.9.9,0,0,0-.9-.9h-21a.9.9,0,0,0-.9.9h0v4.4H514.2v-4.4a.9.9,0,0,0-.9-.9h-21a.9.9,0,0,0-.9.9h0v4.4H478.3v-4.4a.9.9,0,0,0-.9-.9h-21a.9.9,0,0,0-.9.9h0v4.4H442.4v-4.4a.9.9,0,0,0-.9-.9H277.3a.9.9,0,0,0-.9.9h0v4.4H263.3v-4.4a.9.9,0,0,0-.9-.9h-21a.9.9,0,0,0-.9.9h0v4.4H227.4v-4.4a.9.9,0,0,0-.9-.9h-21a.9.9,0,0,0-.9.9h0v4.4H191.5v-4.4a.9.9,0,0,0-.9-.9h-21a.9.9,0,0,0-.9.9h0v4.4H155.6v-4.4a.9.9,0,0,0-.9-.9h-21a.9.9,0,0,0-.9.9h0v4.4H119.7v-4.4a.9.9,0,0,0-.9-.9H98a.9.9,0,0,0-.9.9h0v4.4H84v-4.4a.9.9,0,0,0-.9-.9h-21a.9.9,0,0,0-.9.9h0v4.4H21a21,21,0,0,0-21,21v9.5a21,21,0,0,0,21,21H719a21,21,0,0,0,21-21h0v-9.5A21,21,0,0,0,719,383.9Z" transform="translate(0 0)"/><path class="cls-3" d="M163.2,341.2a76,76,0,1,1,76-76,76,76,0,0,1-76,76Zm0-150a74,74,0,1,0,74,74,74,74,0,0,0-74-74Z" transform="translate(0 0)"/><rect class="cls-7" x="407.1" y="547.9" width="588.4" height="1.6"/><path class="cls-4" d="M1057.2,219.5h-2.4V154.3a37.74,37.74,0,0,0-37.7-37.7H879a37.74,37.74,0,0,0-37.7,37.7h0V511.8A37.74,37.74,0,0,0,879,549.5h138.1a37.74,37.74,0,0,0,37.7-37.7h0v-246h2.4Z" transform="translate(0 0)"/><path class="cls-5" d="M1046.8,155.7v357a28.17,28.17,0,0,1-28.14,28.2H879.9a28.17,28.17,0,0,1-28.2-28.14V155.7a28.17,28.17,0,0,1,28.14-28.2H896.7A13.33,13.33,0,0,0,904,144.89h0a12.41,12.41,0,0,0,5.1,1h79.1a13.4,13.4,0,0,0,13.4-13.4h0a13.13,13.13,0,0,0-1-5.1h18A28.45,28.45,0,0,1,1046.8,155.7Z" transform="translate(0 0)"/><rect class="cls-4" x="928.6" y="362.9" width="41.3" height="12.2"/><rect class="cls-4" x="878.6" y="267.6" width="141.2" height="5.2"/><rect class="cls-4" x="878.6" y="284.2" width="141.2" height="5.2"/><rect class="cls-4" x="878.6" y="300.8" width="141.2" height="5.2"/><rect class="cls-4" x="878.6" y="317.4" width="141.2" height="5.2"/><rect class="cls-4" x="878.6" y="334.1" width="141.2" height="5.2"/><rect class="cls-1" x="929.7" y="197.9" width="24.5" height="24.5"/><path class="cls-3" d="M939.1,204v29.7h29.7V204Zm28.4,28.5H940.3V205.3h27.2Z" transform="translate(0 0)"/><path class="cls-6" d="M1046.8,474.6v38.1a28.17,28.17,0,0,1-28.14,28.2H879.9a28.17,28.17,0,0,1-28.2-28.14V320.5l116.9,92.3,2,1.6,21.7,17.2,2,1.6Z" transform="translate(0 0)"/><circle class="cls-2" cx="937.2" cy="485.4" r="43.9"/><path class="cls-3" d="M320.2,641.2a87,87,0,1,1,87-87A87,87,0,0,1,320.2,641.2Zm0-172a85,85,0,1,0,85,85A85,85,0,0,0,320.2,469.2Z" transform="translate(0 0)"/><path class="cls-3" d="M950.2,519.2a55,55,0,1,1,55-55h0A55,55,0,0,1,950.2,519.2Zm0-108a53,53,0,1,0,53,53h0A53.22,53.22,0,0,0,950.2,411.2Z" transform="translate(0 0)"/></svg>